<!DOCTYPE svg PUBLIC "-//W3C//DTD SVG 20010904//EN" "http://www.w3.org/TR/2001/REC-SVG-20010904/DTD/svg10.dtd">
<svg version="1.0" xmlns="http://www.w3.org/2000/svg" width="490px" height="637px" viewBox="0 0 4900 6370" preserveAspectRatio="xMidYMid meet">
<g id="layer1" fill="#e6b711" stroke="none">
 <path d="M2275 6170 c-4 -6 17 -10 57 -10 104 0 298 -74 331 -126 13 -22 106 -74 112 -64 4 6 -8 18 -25 28 -18 9 -56 35 -86 58 -109 83 -221 124 -341 124 -23 0 -45 -4 -48 -10z"/>
 <path d="M2290 6123 c-92 -9 -200 -27 -225 -38 -54 -22 -95 -64 -95 -97 0 -92 114 -157 312 -177 54 -5 102 -12 107 -15 5 -3 11 8 15 24 7 35 47 63 124 86 51 15 98 14 57 -1 -73 -27 -137 -61 -145 -75 -15 -29 -5 -54 27 -65 16 -5 46 -25 67 -42 42 -37 54 -40 98 -17 49 25 205 31 262 9 50 -19 62 -41 54 -95 -4 -27 5 -42 14 -22 2 5 28 26 58 46 117 80 108 145 -29 220 -30 16 -61 26 -72 23 -29 -8 -220 80 -276 126 -59 48 -107 73 -170 88 -62 14 -151 25 -183 22z m275 -142 c-3 -5 -42 -22 -88 -36 -110 -36 -161 -69 -154 -100 3 -21 2 -23 -14 -14 -40 21 -10 67 64 97 38 15 171 58 190 61 5 0 6 -3 2 -8z"/>
 <path d="M2855 5950 c-11 -18 4 -27 57 -33 29 -4 82 -22 122 -42 78 -39 86 -41 86 -20 0 30 -250 119 -265 95z"/>
 <path d="M1045 5852 c-12 -3 12 -12 65 -23 125 -25 209 -46 265 -64 97 -32 105 -34 105 -26 0 15 -209 86 -313 106 -83 16 -90 16 -122 7z"/>
 <path d="M916 5788 c-16 -6 -58 -28 -94 -48 -190 -111 -148 -281 78 -314 26 -4 89 0 150 10 58 9 141 18 185 20 76 3 81 5 110 37 19 23 52 42 93 57 117 42 277 10 341 -67 26 -32 31 -34 52 -23 70 37 117 121 88 157 -27 33 -100 56 -189 59 -99 5 -187 21 -400 76 -125 32 -177 40 -270 44 -71 2 -126 -1 -144 -8z m313 -92 c-2 -1 -39 -27 -81 -55 -43 -29 -82 -60 -88 -69 -8 -15 -9 -14 -10 4 0 11 8 28 18 37 25 22 156 97 161 91 2 -2 2 -6 0 -8z m66 -26 c-3 -5 -28 -23 -55 -41 -50 -33 -114 -102 -103 -113 4 -3 15 -6 25 -6 10 0 18 -4 18 -10 0 -5 -13 -10 -29 -10 -102 0 -73 70 64 154 64 39 94 49 80 26z"/>
 <path d="M1650 5745 c-13 -14 -20 -28 -17 -32 4 -3 46 -8 95 -9 48 -1 106 -9 131 -18 56 -20 61 -20 61 4 0 29 -44 53 -124 67 -102 18 -119 16 -146 -12z"/>
 <path d="M2664 5686 c-23 -7 -59 -26 -80 -42 -22 -15 -41 -29 -43 -31 -2 -1 -1 -9 2 -18 5 -13 11 -13 34 -2 15 6 35 19 44 28 9 9 37 24 61 33 37 14 52 16 84 7 48 -14 54 -18 83 -58 21 -32 23 -32 47 -17 32 22 34 76 2 98 -28 20 -174 21 -234 2z"/>
 <path d="M1410 5512 c-25 -16 -52 -41 -60 -56 -14 -25 -14 -28 10 -46 28 -22 55 -18 83 11 10 10 29 22 44 25 36 9 137 -11 168 -33 24 -17 26 -27 14 -72 -6 -24 25 -24 65 0 31 18 36 26 36 58 0 27 -8 46 -27 68 -48 52 -88 67 -193 70 -89 2 -98 1 -140 -25z"/>
 <path d="M2995 3758 c-11 -65 -92 -198 -120 -198 -8 0 -15 -4 -15 -8 0 -10 -81 -93 -183 -190 -37 -34 -67 -66 -67 -71 0 -5 -7 -14 -15 -21 -9 -8 -13 -21 -9 -32 4 -13 -6 -44 -27 -85 -40 -79 -74 -98 -154 -90 -70 7 -109 -1 -94 -19 6 -8 16 -14 22 -14 13 0 137 -131 137 -145 0 -22 52 -86 65 -81 8 2 18 -1 24 -8 6 -7 26 -13 45 -14 40 -2 105 -25 216 -76 79 -37 99 -53 195 -151 99 -101 159 -185 214 -300 15 -33 40 -85 55 -116 54 -116 91 -326 83 -471 -10 -163 -57 -291 -141 -384 -24 -28 -48 -62 -51 -75 -4 -15 8 -70 29 -142 39 -128 41 -137 25 -137 -9 0 -99 80 -171 154 -33 33 -113 52 -137 32 -20 -16 -243 -17 -317 -1 -212 44 -389 163 -513 345 -191 278 -275 623 -216 885 21 93 52 174 80 207 14 16 25 38 25 48 0 10 5 22 10 25 8 5 7 11 -1 21 -6 8 -9 17 -5 21 3 4 -3 16 -14 28 -11 11 -21 39 -24 60 -2 22 -7 48 -11 57 -8 21 17 60 50 78 27 14 31 30 14 47 -11 11 -23 10 -64 -7 -11 -5 -61 -23 -112 -41 l-92 -32 -52 17 c-104 34 -198 136 -199 214 0 22 -6 35 -17 39 -10 3 -38 21 -63 38 -75 54 -80 54 -146 -18 -274 -293 -461 -703 -514 -1127 -13 -109 -13 -361 0 -470 48 -387 205 -756 448 -1053 133 -162 337 -338 518 -448 l82 -49 967 0 967 0 82 49 c329 199 601 498 772 846 139 285 204 567 204 890 0 234 -29 421 -100 635 -95 290 -250 546 -465 769 -321 332 -690 522 -1177 605 l-36 7 -7 -43z m831 -1012 c-15 -13 -47 -29 -70 -36 -49 -14 -158 -73 -176 -95 -13 -16 -40 -21 -40 -7 0 28 286 187 305 170 6 -6 0 -18 -19 -32z m419 -457 c4 -6 -1 -16 -11 -23 -58 -43 -472 -131 -498 -106 -16 16 4 28 61 34 32 4 93 16 136 27 205 51 243 62 252 70 13 12 52 11 60 -2z m-2983 -112 c65 -1 118 -5 118 -8 0 -10 -63 -20 -170 -28 -114 -8 -140 -5 -140 19 0 20 23 30 55 23 11 -2 73 -5 137 -6z m338 -378 c0 -14 -56 -36 -115 -44 -27 -3 -81 -15 -119 -26 -71 -21 -87 -19 -70 8 12 20 84 42 139 44 22 0 65 7 95 14 30 7 58 13 63 14 4 0 7 -4 7 -10z m2490 -154 c64 -3 75 -7 75 -22 0 -22 -18 -22 -222 -3 -112 10 -143 16 -143 28 0 12 17 13 108 7 59 -4 141 -9 182 -10z m-2470 -223 c0 -5 -44 -30 -97 -57 -86 -42 -190 -98 -325 -173 -69 -38 -181 -83 -195 -78 -22 9 -15 33 15 55 15 10 59 31 97 46 39 14 135 58 215 97 225 109 290 134 290 110z m2258 -172 c22 -11 48 -20 56 -20 8 0 17 -4 21 -9 3 -5 20 -13 38 -17 17 -3 55 -17 82 -29 28 -12 77 -32 110 -44 33 -12 69 -26 80 -31 11 -5 37 -14 57 -20 42 -13 63 -33 54 -55 -9 -24 -68 -18 -110 10 -20 14 -43 25 -51 25 -7 0 -15 4 -17 8 -4 11 -198 105 -273 133 -59 21 -95 44 -95 61 0 11 0 11 48 -12z m-2008 -116 c0 -25 -244 -257 -322 -307 -27 -17 -43 -10 -32 15 3 7 73 67 156 133 83 66 158 130 167 142 15 21 31 30 31 17z m450 -240 c0 -9 -132 -154 -140 -154 -4 0 -10 9 -13 20 -4 15 11 34 61 80 59 53 92 72 92 54z"/>
 <path d="M2506 2705 c-21 -69 -74 -116 -165 -147 -54 -18 -86 -22 -176 -21 -60 1 -123 3 -138 5 -27 3 -31 -1 -63 -77 -18 -44 -33 -95 -34 -113 0 -18 -4 -41 -10 -51 -19 -37 -23 -213 -6 -302 25 -125 36 -170 57 -216 10 -24 19 -46 19 -50 0 -11 50 -107 98 -189 53 -91 97 -143 186 -222 163 -143 250 -171 556 -175 119 -2 203 -7 215 -14 11 -6 33 -25 49 -42 17 -17 35 -31 41 -31 14 0 11 80 -4 108 -8 15 -4 25 19 47 17 16 30 37 30 47 0 10 20 45 45 79 75 102 90 168 89 389 0 216 -9 260 -85 420 -131 275 -284 446 -499 555 -49 25 -149 54 -191 55 -10 0 -21 -19 -33 -55z m225 -750 c54 -113 32 -194 -63 -228 -26 -9 -82 10 -137 48 -28 19 -55 35 -60 35 -5 0 -10 -29 -10 -65 0 -99 -43 -155 -118 -155 -56 0 -163 153 -163 234 0 49 16 45 24 -5 9 -57 59 -151 97 -183 73 -62 152 20 135 138 -4 25 -11 48 -17 51 -5 4 -7 11 -4 16 8 12 45 12 45 -1 0 -5 5 -10 11 -10 6 0 39 -18 72 -40 80 -54 102 -58 134 -29 56 52 61 133 14 210 -25 40 -26 49 -6 49 8 0 28 -29 46 -65z"/>
 </g>
<g id="layer2" fill="#acb8be" stroke="none">
 <path d="M2356 6220 c50 -4 102 -11 115 -14 21 -6 22 -5 6 4 -10 7 -62 13 -115 15 l-97 4 91 -9z"/>
 <path d="M2135 6188 c-33 -11 -71 -31 -86 -44 -14 -13 -30 -24 -35 -24 -11 0 -104 -92 -104 -102 0 -4 21 15 46 42 26 28 51 50 57 50 6 0 22 11 36 24 15 13 55 33 91 44 36 12 72 23 80 26 10 3 8 5 -5 5 -11 0 -47 -9 -80 -21z"/>
 <path d="M2551 6176 c10 -9 69 -36 69 -32 0 6 -55 36 -66 36 -4 0 -5 -2 -3 -4z"/>
 <path d="M2754 6047 c30 -26 71 -43 60 -26 -3 5 -10 9 -16 9 -5 0 -24 9 -41 21 l-32 21 29 -25z"/>
 <path d="M2856 6001 c-4 -5 3 -7 13 -4 11 3 37 0 58 -7 92 -29 210 -75 228 -89 20 -16 20 -15 2 5 -9 11 -32 26 -50 31 -17 6 -72 25 -120 42 -92 32 -122 37 -131 22z"/>
 <path d="M1940 5907 c23 -27 89 -68 107 -67 4 1 -10 10 -32 22 -22 11 -53 32 -70 47 l-30 26 25 -28z"/>
 <path d="M1005 5893 c-11 -3 -24 -9 -29 -14 -5 -4 8 -3 30 3 21 6 75 8 119 6 44 -3 69 -2 55 2 -28 9 -144 10 -175 3z"/>
 <path d="M1250 5866 c25 -7 54 -17 65 -20 12 -5 10 -2 -5 7 -14 9 -43 18 -65 21 l-40 6 45 -14z"/>
 <path d="M3200 5866 c19 -8 55 -19 80 -27 25 -7 49 -16 55 -21 5 -4 18 -8 30 -8 26 0 136 -56 153 -77 6 -9 12 -12 12 -5 0 16 -72 60 -129 79 -25 9 -55 19 -66 24 -11 4 -38 13 -60 20 -22 6 -50 15 -63 20 -13 5 -28 9 -35 8 -7 0 4 -6 23 -13z"/>
 <path d="M873 5844 c-28 -15 -70 -44 -94 -66 l-44 -40 45 34 c67 51 100 70 145 84 22 7 31 13 20 13 -12 1 -44 -11 -72 -25z"/>
 <path d="M1350 5834 c0 -7 52 -25 57 -20 2 2 -10 8 -26 14 -17 6 -31 9 -31 6z"/>
 <path d="M1635 5777 c-17 -13 -39 -27 -50 -30 -18 -4 -18 -5 -1 -6 10 0 31 10 48 24 25 21 39 25 99 25 39 0 89 -5 112 -10 27 -7 58 -7 87 -1 l45 9 -60 0 c-33 0 -103 3 -155 7 -92 7 -97 6 -125 -18z"/>
 <path d="M2170 5790 c-16 -4 6 -7 56 -6 45 1 80 4 77 9 -5 9 -100 7 -133 -3z"/>
 <path d="M1993 5778 c6 -4 44 -7 82 -7 81 1 69 6 -27 11 -37 2 -62 0 -55 -4z"/>
 <path d="M664 5649 c-29 -58 -27 -112 7 -151 l19 -23 -15 30 c-28 57 -29 89 -1 144 15 28 24 51 21 51 -2 0 -16 -23 -31 -51z"/>
 <path d="M3515 5679 c-14 -22 -121 -59 -203 -70 -48 -6 -96 -15 -107 -19 -22 -9 14 -6 129 12 74 11 164 46 185 72 7 9 11 16 8 16 -3 0 -9 -5 -12 -11z"/>
 <path d="M2690 5629 c-13 -6 -31 -16 -40 -24 -8 -7 -53 -35 -100 -61 -138 -76 -182 -114 -240 -211 -59 -97 -47 -190 57 -447 17 -41 39 -77 55 -89 25 -19 28 -19 52 -3 37 23 34 53 -19 202 -54 151 -56 188 -14 260 61 108 223 251 304 268 78 17 94 75 29 102 -38 16 -50 16 -84 3z"/>
 <path d="M1981 5579 c0 -19 2 -20 7 -7 5 13 11 15 22 8 8 -5 26 -9 40 -9 23 1 23 2 -5 9 -16 4 -38 11 -47 15 -14 6 -18 2 -17 -16z"/>
 <path d="M2958 5579 c4 -3 57 -3 117 1 l110 8 -117 -2 c-64 0 -114 -4 -110 -7z"/>
 <path d="M2103 5563 c15 -2 39 -2 55 0 15 2 2 4 -28 4 -30 0 -43 -2 -27 -4z"/>
 <path d="M2218 5553 c18 -2 45 -2 60 0 15 2 0 4 -33 4 -33 0 -45 -2 -27 -4z"/>
 <path d="M2377 5540 c39 -4 76 -11 82 -14 6 -4 11 -3 11 2 0 12 -61 22 -120 21 -35 -1 -29 -3 27 -9z"/>
 <path d="M2825 5516 c-27 -14 -47 -25 -44 -25 9 -1 99 39 99 44 0 7 -1 7 -55 -19z"/>
 <path d="M2357 5448 c-34 -34 -49 -51 -33 -38 43 36 107 100 100 100 -3 0 -33 -28 -67 -62z"/>
 <path d="M730 5442 c19 -17 53 -35 75 -41 54 -13 156 -22 130 -11 -11 5 -38 9 -61 9 -51 1 -99 17 -144 49 l-35 24 35 -30z"/>
 <path d="M1840 5440 c-21 -7 -21 -8 -5 -9 11 0 27 4 35 9 18 11 5 11 -30 0z"/>
 <path d="M1193 5431 c-45 -4 -86 -11 -90 -15 -4 -5 3 -6 17 -3 14 3 57 7 97 8 40 1 70 6 67 11 -3 4 -6 7 -7 6 -1 0 -39 -4 -84 -7z"/>
 <path d="M1440 5384 c-108 -67 -157 -110 -202 -177 -38 -56 -40 -63 -35 -114 10 -95 108 -226 211 -282 38 -21 48 -23 71 -13 14 7 28 19 31 27 7 17 -29 92 -57 118 -42 39 -62 97 -56 163 4 61 6 63 68 123 35 34 88 78 117 98 28 20 52 42 52 49 0 17 -43 39 -90 48 -30 5 -46 0 -110 -40z"/>
 <path d="M1043 5403 c9 -2 25 -2 35 0 9 3 1 5 -18 5 -19 0 -27 -2 -17 -5z"/>
 <path d="M973 5393 c9 -2 25 -2 35 0 9 3 1 5 -18 5 -19 0 -27 -2 -17 -5z"/>
 <path d="M1300 5372 c10 -20 6 -27 -37 -68 l-48 -46 52 44 c29 23 53 46 53 49 0 3 -7 14 -16 25 -14 18 -15 18 -4 -4z"/>
 <path d="M1793 5333 c-25 -25 -18 -30 11 -8 10 7 16 17 15 22 -2 4 -14 -2 -26 -14z"/>
 <path d="M2262 5338 c-10 -13 -28 -67 -20 -58 9 8 39 70 34 70 -2 0 -8 -6 -14 -12z"/>
 <path d="M2501 5295 c-29 -33 -36 -45 -28 -45 2 0 18 18 36 40 40 49 34 53 -8 5z"/>
 <path d="M1649 5297 c5 -5 26 -7 47 -5 l39 3 -47 5 c-26 3 -43 1 -39 -3z"/>
 <path d="M2233 5200 c0 -41 2 -58 4 -37 2 20 2 54 0 75 -2 20 -4 3 -4 -38z"/>
 <path d="M1470 5198 c-22 -19 -30 -32 -22 -35 6 -3 9 -10 6 -16 -4 -7 -1 -6 7 2 11 11 11 14 1 18 -8 3 1 16 24 34 20 16 33 29 28 29 -5 -1 -25 -15 -44 -32z"/>
 <path d="M2454 5130 c2 -19 11 -51 20 -70 16 -35 14 -23 -11 60 -12 40 -13 41 -9 10z"/>
 <path d="M1424 5115 c-3 -8 -4 -20 -1 -27 3 -7 6 -3 6 9 1 12 7 24 14 26 9 4 9 6 -1 6 -7 1 -15 -6 -18 -14z"/>
 <path d="M2242 5110 c30 -87 52 -140 55 -137 4 5 -45 138 -54 146 -3 4 -4 -1 -1 -9z"/>
 <path d="M1190 5001 c0 -12 47 -91 54 -91 4 0 -41 87 -51 99 -2 2 -3 -1 -3 -8z"/>
 <path d="M2500 4984 c0 -7 71 -36 76 -31 2 2 -14 11 -36 20 -22 8 -40 13 -40 11z"/>
 <path d="M2300 4954 c0 -6 -59 -15 -130 -22 -72 -6 -154 -18 -183 -25 -28 -8 -80 -20 -115 -26 -34 -7 -83 -21 -109 -32 -54 -23 -76 -25 -122 -10 -43 13 -32 1 14 -14 28 -10 42 -9 87 7 29 11 80 26 113 34 33 8 89 21 125 29 35 9 121 21 190 27 119 11 152 19 137 35 -4 3 -7 2 -7 -3z"/>
 <path d="M2590 4948 c3 -2 28 -24 55 -48 48 -42 48 -42 15 -6 -19 21 -44 42 -55 48 -11 6 -18 9 -15 6z"/>
 <path d="M1550 4885 c19 -19 36 -35 39 -35 3 0 -10 16 -29 35 -19 19 -36 35 -39 35 -3 0 10 -16 29 -35z"/>
 <path d="M2556 4911 c-15 -6 -20 -19 -22 -66 -4 -66 -18 -87 -61 -89 -45 -2 -78 19 -113 74 -17 27 -36 48 -40 45 -14 -8 -3 -90 16 -131 21 -44 94 -124 113 -124 20 0 168 148 186 186 15 33 15 36 -5 64 -26 37 -49 50 -74 41z"/>
 <path d="M1270 4883 c0 -16 136 -120 203 -156 33 -18 69 -38 81 -44 21 -13 21 -13 -2 -13 -75 0 -219 -65 -292 -131 l-45 -40 54 41 c102 77 232 127 303 116 22 -4 38 -2 38 4 0 5 -8 7 -17 3 -10 -3 -14 -2 -10 2 4 5 -5 16 -21 25 -16 8 -57 30 -90 47 -60 32 -165 110 -189 141 -7 9 -13 11 -13 5z"/>
 <path d="M2180 4883 c-66 -8 -301 -53 -378 -73 -80 -21 -105 -39 -136 -104 -18 -36 -5 -85 36 -142 41 -57 106 -87 176 -81 57 5 84 23 108 69 17 33 68 62 98 54 11 -3 30 -12 41 -20 19 -14 17 -15 -26 -10 -41 6 -48 3 -78 -26 -18 -18 -49 -58 -70 -89 -20 -31 -60 -87 -88 -126 -75 -103 -198 -353 -224 -455 -28 -109 -23 -243 12 -337 13 -35 26 -63 30 -63 4 0 13 16 19 35 7 20 26 55 44 78 38 51 56 107 56 177 0 99 29 179 117 325 16 28 60 102 97 165 37 63 72 122 77 130 5 8 23 43 40 78 32 65 38 69 57 50 8 -8 37 -7 119 6 171 27 172 28 88 95 -72 57 -110 132 -110 214 l1 57 -36 -2 c-19 0 -51 -3 -70 -5z"/>
 <path d="M2767 4717 c3 -5 16 -7 30 -4 29 5 120 -20 181 -52 23 -12 42 -19 42 -16 0 9 -94 53 -140 65 -53 15 -120 19 -113 7z"/>
 <path d="M2605 4646 c-95 -63 -125 -114 -125 -210 0 -75 13 -111 62 -164 l42 -48 23 27 c13 15 23 33 23 41 0 19 20 38 41 38 10 0 72 50 138 110 66 61 122 106 125 101 3 -5 -3 -20 -14 -34 -11 -14 -20 -31 -20 -37 0 -33 98 -143 153 -171 36 -19 40 -19 63 -4 15 10 24 25 24 42 0 54 -89 236 -131 269 -21 16 -128 52 -174 59 -38 5 -44 2 -125 -64 -75 -61 -130 -92 -130 -72 0 4 32 33 70 65 39 31 70 64 70 72 0 26 -62 15 -115 -20z"/>
 <path d="M1485 4622 c-6 -5 -30 -14 -55 -21 -46 -14 -115 -55 -162 -99 -33 -30 -52 -83 -44 -119 6 -23 10 -24 44 -18 20 4 48 14 62 24 14 9 44 25 68 36 28 12 44 26 48 42 5 18 13 23 36 23 28 0 29 -2 23 -32 -10 -45 -52 -136 -83 -177 -32 -43 -40 -100 -15 -99 10 1 35 -6 55 -16 44 -21 52 -18 150 61 80 65 116 110 134 170 12 38 11 50 -1 79 -19 45 -37 43 -53 -8 -7 -22 -23 -54 -35 -70 -57 -74 -130 -158 -134 -154 -3 2 13 30 34 62 95 142 97 147 101 204 4 54 3 57 -32 88 -30 26 -45 32 -84 32 -27 0 -52 -4 -57 -8z"/>
 <path d="M3060 4585 c40 -48 43 -51 32 -30 -6 11 -21 29 -34 40 -22 19 -22 19 2 -10z"/>
 <path d="M2403 4503 c9 -2 25 -2 35 0 9 3 1 5 -18 5 -19 0 -27 -2 -17 -5z"/>
 <path d="M2333 4493 c9 -2 25 -2 35 0 9 3 1 5 -18 5 -19 0 -27 -2 -17 -5z"/>
 <path d="M3132 4473 c17 -41 30 -53 17 -15 -6 18 -15 35 -20 38 -5 3 -4 -7 3 -23z"/>
 <path d="M2225 4480 c-42 -11 -1 -11 50 -1 34 7 35 9 10 9 -16 0 -43 -4 -60 -8z"/>
 <path d="M2433 4445 c0 -22 2 -30 4 -17 2 12 2 30 0 40 -3 9 -5 -1 -4 -23z"/>
 <path d="M2147 4425 c-14 -25 -22 -45 -18 -45 5 0 14 14 21 31 7 17 19 37 27 45 8 8 10 14 5 14 -6 0 -22 -20 -35 -45z"/>
 <path d="M1820 4450 c14 -4 34 -8 45 -8 16 0 15 2 -5 8 -14 4 -34 8 -45 8 -16 0 -15 -2 5 -8z"/>
 <path d="M1182 4410 c0 -19 2 -27 5 -17 2 9 2 25 0 35 -3 9 -5 1 -5 -18z"/>
 <path d="M1771 4373 c-14 -30 -47 -79 -74 -109 -56 -62 -58 -71 -3 -18 39 38 110 156 104 173 -1 5 -14 -15 -27 -46z"/>
 <path d="M2862 4408 c-18 -18 -15 -31 11 -48 30 -20 67 -30 67 -18 0 12 -50 78 -59 78 -4 0 -12 -5 -19 -12z"/>
 <path d="M1395 4397 c-13 -10 -15 -16 -6 -21 17 -11 41 0 41 19 0 19 -11 19 -35 2z"/>
 <path d="M2772 4357 c-12 -13 -22 -27 -22 -31 0 -5 9 3 21 18 11 14 25 23 31 20 7 -4 8 -2 4 4 -9 16 -9 16 -34 -11z"/>
 <path d="M1196 4350 c7 -25 21 -40 38 -40 6 0 3 6 -6 13 -8 6 -21 21 -27 32 -11 18 -11 18 -5 -5z"/>
 <path d="M1303 4349 c-13 -5 -23 -11 -23 -13 0 -3 11 -1 25 4 15 6 26 6 30 0 4 -6 21 -9 38 -9 l32 2 -30 4 c-16 3 -34 8 -40 13 -5 4 -20 4 -32 -1z"/>
 <path d="M2451 4334 c-1 -21 6 -37 21 -50 19 -16 20 -16 9 -1 -7 9 -17 32 -21 50 l-8 32 -1 -31z"/>
 <path d="M2088 4313 c-18 -21 -31 -43 -25 -43 2 0 13 14 25 30 25 33 24 41 0 13z"/>
 <path d="M1382 4288 c-10 -30 -10 -31 3 -14 13 17 21 46 12 46 -1 0 -8 -15 -15 -32z"/>
 <path d="M2874 4303 c15 -19 29 -23 71 -23 35 0 57 -5 65 -16 8 -8 23 -20 34 -26 12 -5 5 4 -14 20 -29 26 -44 31 -84 32 -32 0 -57 6 -70 18 -21 17 -21 17 -2 -5z"/>
 <path d="M2640 4278 c-22 -37 -26 -73 -8 -84 7 -5 9 -2 4 7 -4 8 -1 5 6 -5 157 -232 200 -344 169 -438 -6 -19 -45 -70 -86 -114 -41 -43 -75 -82 -75 -86 0 -5 -4 -8 -10 -8 -5 0 -28 -19 -51 -42 -23 -24 -36 -34 -28 -24 14 20 14 20 -19 0 -56 -32 -132 -105 -132 -125 0 -12 18 -32 45 -51 25 -18 41 -36 37 -40 -15 -15 -66 11 -89 45 -19 27 -21 38 -13 72 18 77 14 93 -26 104 -47 13 -99 -10 -113 -51 -13 -36 3 -131 29 -173 47 -75 135 -135 198 -135 37 0 50 15 61 74 7 37 6 48 -7 55 -12 7 1 23 60 79 41 39 94 88 117 109 78 68 213 248 246 328 44 104 -10 235 -182 445 -80 98 -102 108 -133 58z"/>
 <path d="M2790 4260 c12 -16 24 -30 26 -30 3 0 -4 14 -16 30 -12 17 -24 30 -26 30 -3 0 4 -13 16 -30z"/>
 <path d="M3157 4254 c-10 -13 -24 -24 -32 -24 -8 0 -16 -4 -19 -9 -4 -5 3 -7 13 -4 20 5 67 50 60 57 -2 2 -12 -7 -22 -20z"/>
 <path d="M2491 4253 c1 -5 24 -28 53 -53 l51 -44 -50 52 c-50 53 -56 58 -54 45z"/>
 <path d="M2860 4161 c22 -33 44 -63 50 -66 6 -4 -10 23 -36 59 -25 36 -48 66 -50 66 -3 0 13 -27 36 -59z"/>
 <path d="M1545 4134 l-50 -46 53 42 c45 36 59 51 50 50 -2 0 -25 -21 -53 -46z"/>
 <path d="M1979 4143 c-13 -21 -27 -44 -32 -50 -4 -7 -6 -13 -3 -13 8 0 68 91 63 96 -2 3 -15 -12 -28 -33z"/>
 <path d="M1383 4153 c-7 -2 -13 -11 -13 -18 0 -7 -3 -15 -7 -17 -10 -4 -50 -56 -134 -173 -193 -268 -213 -424 -70 -561 40 -39 137 -104 155 -104 3 0 6 6 6 14 0 7 7 19 15 26 11 9 12 17 6 23 -7 7 -7 16 0 28 12 22 -12 64 -40 72 -10 2 -34 35 -54 75 l-35 71 14 55 c17 66 80 202 126 273 88 137 128 203 128 211 0 20 -67 38 -97 25z"/>
 <path d="M2622 4133 c41 -56 70 -89 60 -68 -6 11 -27 38 -47 60 -26 28 -30 31 -13 8z"/>
 <path d="M1661 4054 c-12 -20 -20 -38 -18 -40 2 -2 14 14 26 36 28 50 21 53 -8 4z"/>
 <path d="M1235 4019 c-20 -28 -32 -48 -26 -45 12 8 74 96 67 96 -2 0 -21 -23 -41 -51z"/>
 <path d="M2710 4010 c12 -16 24 -30 26 -30 3 0 -4 14 -16 30 -12 17 -24 30 -26 30 -3 0 4 -13 16 -30z"/>
 <path d="M1887 3965 c-9 -20 -17 -41 -17 -48 0 -7 9 8 20 32 24 52 21 66 -3 16z"/>
 <path d="M2746 3950 c3 -14 10 -29 15 -34 14 -16 10 6 -7 34 l-15 25 7 -25z"/>
 <path d="M1360 3874 c-12 -19 -21 -37 -18 -39 2 -2 14 14 26 36 28 49 22 52 -8 3z"/>
 <path d="M1134 3872 c-6 -4 -15 -18 -19 -32 -8 -28 -6 -27 18 13 19 29 19 31 1 19z"/>
 <path d="M1574 3806 c-3 -7 -4 -40 -2 -72 l3 -59 5 73 c5 72 4 84 -6 58z"/>
 <path d="M2747 3750 c-20 -34 -19 -32 -112 -131 l-70 -74 78 75 c76 73 135 146 125 155 -2 2 -12 -9 -21 -25z"/>
 <path d="M1837 3674 c3 -27 7 -51 9 -53 8 -9 3 75 -5 88 -5 8 -7 -5 -4 -35z"/>
 <path d="M1053 3698 c-18 -24 -35 -76 -30 -95 4 -14 5 -13 6 5 0 13 10 41 20 62 20 41 21 50 4 28z"/>
 <path d="M1250 3589 c0 -19 4 -41 9 -48 6 -10 8 1 4 30 -7 55 -13 63 -13 18z"/>
 <path d="M1600 3553 c0 -14 29 -83 35 -83 3 0 -3 19 -12 43 -18 47 -23 55 -23 40z"/>
 <path d="M2268 3542 c-10 -4 10 -7 45 -8 41 0 53 2 37 7 -32 9 -61 9 -82 1z"/>
 <path d="M2512 3514 l-42 -36 -31 26 c-17 14 -38 26 -47 25 -11 0 -8 -4 8 -10 14 -6 35 -19 47 -31 l22 -20 45 37 c40 33 53 46 44 45 -2 0 -22 -16 -46 -36z"/>
 <path d="M1021 3520 c-1 -8 8 -28 19 -45 14 -21 20 -25 20 -12 0 9 -4 17 -9 17 -5 0 -14 12 -19 28 -6 15 -11 20 -11 12z"/>
 <path d="M2150 3515 c-36 -7 -100 -21 -144 -30 l-79 -17 -24 28 c-16 20 -21 22 -14 8 21 -44 34 -47 118 -29 43 9 111 23 152 30 40 8 76 16 79 19 7 8 -9 6 -88 -9z"/>
 <path d="M1325 3451 c22 -23 54 -52 70 -63 35 -25 30 -20 -50 52 -51 46 -54 48 -20 11z"/>
 <path d="M2085 3449 c-143 -21 -415 -140 -495 -217 l-52 -51 3 -73 c4 -64 8 -79 38 -120 71 -99 172 -113 309 -43 59 30 72 41 72 61 0 46 114 97 170 76 15 -6 38 -5 60 1 31 8 68 12 179 16 l34 1 -64 59 c-85 77 -120 143 -127 233 l-5 68 -31 -1 c-17 -1 -58 -5 -91 -10z"/>
 <path d="M1642 3445 c2 -5 12 -28 23 -49 13 -26 16 -41 9 -43 -6 -2 -20 -11 -30 -19 -16 -13 -14 -13 14 1 39 19 39 28 6 80 -14 22 -24 36 -22 30z"/>
 <path d="M1125 3362 c28 -29 81 -74 120 -100 90 -61 95 -64 95 -58 0 2 -33 26 -72 52 -40 27 -100 73 -133 103 l-60 55 50 -52z"/>
 <path d="M1445 3355 c11 -9 29 -21 40 -26 l20 -10 -20 16 c-11 9 -29 21 -40 26 l-20 10 20 -16z"/>
 <path d="M1510 3317 c0 -2 14 -13 30 -26 l31 -22 26 20 c14 12 22 21 18 21 -5 0 -17 -7 -27 -17 -16 -14 -20 -14 -35 -1 -21 18 -43 31 -43 25z"/>
 <path d="M1420 3151 c14 -11 30 -21 35 -21 11 0 -7 14 -40 31 -13 7 -12 3 5 -10z"/>
 <path d="M1480 3087 c4 -41 5 -41 8 -8 2 18 0 37 -5 42 -5 5 -6 -11 -3 -34z"/>
 <path d="M2075 3052 c-11 -1 -30 -11 -43 -21 -28 -21 -23 -59 14 -93 13 -13 24 -30 24 -38 0 -29 35 -41 74 -25 19 8 37 19 40 24 13 20 -17 23 -50 5 -25 -14 -36 -16 -45 -7 -9 9 -3 15 25 27 34 14 36 17 25 38 -6 13 -18 31 -27 40 -11 14 -12 21 -3 32 13 16 -1 24 -34 18z"/>
 <path d="M2198 3049 c-30 -17 -20 -28 15 -17 69 23 74 27 37 27 -19 0 -43 -4 -52 -10z"/>
 <path d="M2285 2938 c-54 -54 -141 -96 -236 -115 -43 -9 -79 -20 -79 -24 0 -5 26 -9 58 -9 41 1 79 10 137 35 70 29 86 40 128 94 54 69 51 77 -8 19z"/>
 <path d="M2331 2897 c-32 -52 -61 -72 -149 -106 -57 -22 -98 -31 -128 -30 -51 3 -74 -12 -58 -39 9 -13 25 -17 70 -17 102 -1 229 57 261 119 15 28 35 106 27 106 -1 0 -11 -15 -23 -33z"/>
 <path d="M2016 2875 c-22 -23 -20 -35 7 -35 38 0 50 14 28 34 -17 16 -20 16 -35 1z"/>
 <path d="M2411 2881 c-8 -5 -22 -29 -30 -53 -28 -74 -159 -144 -294 -155 -60 -5 -66 -8 -54 -21 45 -44 176 -28 281 35 50 31 62 45 88 99 31 66 35 111 9 95z"/>
 <path d="M2425 2729 c-8 -25 -79 -73 -146 -100 -71 -28 -239 -40 -239 -17 0 15 -34 31 -44 21 -3 -3 6 -17 20 -31 13 -15 24 -30 24 -33 0 -4 30 -12 68 -18 58 -10 77 -9 146 9 115 29 181 73 217 142 10 21 19 39 19 40 0 2 -13 3 -30 4 -21 1 -31 -4 -35 -17z"/>
 <path d="M1000 1116 c6 -6 18 -5 32 1 21 10 21 10 -9 9 -19 -1 -28 -5 -23 -10z"/>
 <path d="M4360 1058 c15 -18 12 -36 -7 -41 -17 -4 -17 -5 0 -6 24 -1 33 27 13 45 -9 8 -11 9 -6 2z"/>
 </g>
<g id="layer3" fill="#060706" stroke="none">
 <path d="M2240 6209 c-132 -40 -168 -54 -191 -75 -14 -13 -30 -24 -36 -24 -6 0 -31 -22 -57 -50 -61 -65 -63 -102 -7 -153 54 -48 187 -98 279 -105 40 -2 75 -8 77 -12 11 -17 -313 -20 -545 -4 -93 6 -97 5 -127 -20 -35 -29 -63 -33 -101 -12 -36 19 -120 56 -128 56 -3 0 -20 6 -37 14 -156 68 -285 82 -409 42 -83 -26 -106 -39 -194 -108 -48 -37 -67 -60 -88 -107 -24 -54 -25 -64 -16 -103 13 -50 23 -64 70 -99 47 -34 63 -40 144 -49 49 -6 96 -4 160 7 135 23 246 30 257 17 5 -6 6 -13 3 -17 -3 -3 2 -17 12 -32 l18 -28 -37 -29 c-20 -16 -51 -51 -69 -76 -29 -43 -31 -53 -31 -128 0 -127 37 -194 166 -298 53 -42 96 -68 223 -133 24 -13 44 -25 44 -29 0 -3 -19 -2 -43 1 -106 16 -280 -70 -372 -185 -22 -27 -20 -84 3 -127 15 -28 25 -28 77 -3 25 11 44 15 50 9 5 -5 22 -9 37 -9 36 0 36 -9 -4 -123 -21 -60 -41 -101 -59 -117 -33 -30 -167 -228 -196 -290 -66 -140 -83 -190 -83 -243 0 -65 7 -87 27 -87 8 0 11 -5 8 -10 -16 -25 106 -160 179 -197 17 -9 44 -27 60 -40 16 -13 64 -45 107 -69 69 -40 79 -49 79 -74 0 -82 87 -182 187 -215 49 -16 55 -16 100 0 165 60 208 73 221 63 14 -12 16 -38 3 -38 -15 0 -71 -60 -71 -76 0 -8 7 -14 15 -14 8 0 15 -4 15 -10 0 -5 -5 -10 -10 -10 -16 0 -1 -71 20 -95 10 -11 15 -26 13 -33 -3 -8 8 -18 26 -25 17 -6 31 -18 31 -26 0 -22 170 -9 239 18 67 27 138 75 146 100 4 13 14 18 35 17 17 -1 30 -2 30 -4 0 -1 -9 -19 -19 -40 -36 -69 -102 -113 -217 -142 -68 -18 -88 -19 -144 -10 -55 9 -69 16 -85 40 -22 32 -52 42 -41 13 4 -11 -4 -27 -23 -47 -48 -49 -94 -202 -104 -339 -9 -128 25 -327 80 -466 144 -362 363 -572 667 -636 74 -16 297 -15 317 1 9 8 30 9 61 5 39 -6 59 -19 128 -81 44 -40 85 -81 91 -91 10 -20 39 -26 39 -9 0 6 -16 63 -36 127 -21 72 -33 127 -29 142 3 13 27 47 51 75 84 93 131 221 141 384 8 145 -29 355 -83 471 -15 31 -40 83 -55 116 -54 114 -114 199 -210 296 -52 54 -106 103 -120 109 -13 6 -37 18 -54 28 -58 35 -204 92 -234 92 -17 0 -41 5 -54 12 -12 6 -29 14 -37 18 -8 4 -27 28 -41 54 -15 27 -44 65 -66 85 -22 20 -42 44 -46 54 -4 9 -17 21 -31 27 -61 23 -21 42 69 33 80 -8 114 11 154 90 21 41 31 72 27 85 -4 11 0 24 9 32 8 7 15 21 15 32 0 10 4 17 9 14 4 -3 24 11 43 32 19 20 71 72 116 116 45 43 82 79 82 81 0 1 15 18 33 37 81 86 134 252 106 336 -15 46 -75 160 -99 187 -25 29 -150 215 -150 224 0 4 10 17 23 29 l23 22 50 -45 c44 -40 54 -45 98 -45 36 0 56 -6 70 -20 37 -34 89 -50 116 -37 46 23 63 93 39 154 -48 117 -81 172 -149 244 -35 38 -178 90 -223 82 -19 -4 -29 2 -46 31 -13 20 -26 36 -31 36 -5 0 -11 14 -15 31 -11 48 -72 109 -141 140 -61 28 -62 29 -88 100 -50 135 -34 193 82 298 73 66 166 125 255 163 29 12 59 28 67 35 8 7 27 23 43 34 18 13 27 30 27 47 0 54 -11 70 -57 87 -56 22 -212 16 -261 -9 -44 -23 -57 -20 -101 19 -21 19 -45 35 -53 35 -30 0 -51 26 -44 54 5 21 20 34 69 56 34 15 71 31 82 35 42 15 -6 16 -57 1 -77 -23 -117 -51 -124 -86 -4 -16 -10 -27 -15 -24 -5 3 -53 10 -107 15 -197 20 -312 85 -312 176 0 55 66 98 181 118 110 20 218 20 303 0 83 -19 126 -40 189 -92 56 -46 247 -134 276 -126 23 6 111 -39 153 -78 50 -48 34 -107 -44 -159 -46 -31 -74 -57 -67 -64 8 -7 305 12 370 24 69 12 154 43 180 67 32 27 10 63 -62 100 -35 18 -73 33 -84 33 -12 0 -25 4 -30 8 -6 5 -30 14 -55 21 -82 24 -105 34 -125 56 -11 12 -58 36 -105 53 -131 47 -160 54 -182 49 -25 -7 -77 21 -190 99 -117 82 -203 115 -313 119 -49 3 -106 0 -125 -6z m185 -39 c69 -11 163 -56 239 -114 30 -23 68 -49 86 -58 17 -10 29 -22 25 -28 -6 -10 -99 42 -112 64 -33 52 -227 126 -331 126 -40 0 -61 4 -57 10 8 13 73 13 150 0z m560 -247 c39 -13 85 -29 103 -35 24 -9 32 -17 32 -34 0 -23 -2 -22 -78 17 -46 24 -98 42 -130 46 -53 6 -68 15 -57 33 7 12 37 6 130 -27z m-1818 -78 c104 -20 313 -91 313 -106 0 -4 -15 -3 -32 3 -105 33 -302 83 -373 93 -39 6 -46 9 -30 16 28 11 34 11 122 -6z m163 -93 c212 -55 300 -71 400 -76 138 -6 222 -54 199 -114 -13 -34 -55 -79 -93 -99 -28 -14 -29 -14 -57 20 -64 77 -224 109 -341 67 -42 -15 -74 -34 -94 -57 -30 -34 -34 -35 -105 -37 -41 -2 -123 -10 -184 -19 -121 -19 -174 -16 -252 15 -125 48 -136 182 -21 267 23 17 46 31 52 31 5 0 17 6 25 14 30 27 85 36 201 32 93 -4 145 -12 270 -44z m453 7 c81 -13 121 -30 137 -58 16 -30 -4 -35 -63 -15 -30 10 -87 18 -134 19 -46 1 -86 4 -90 8 -10 11 38 57 59 57 11 0 52 -5 91 -11z m1115 -75 c32 -22 30 -76 -2 -98 -24 -15 -26 -14 -45 12 -37 48 -40 51 -83 62 -34 10 -49 9 -86 -6 -24 -9 -52 -24 -61 -33 -9 -9 -29 -22 -44 -28 -23 -11 -29 -11 -34 2 -3 9 -4 17 -2 18 2 2 21 16 43 31 54 40 108 55 206 55 62 1 92 -3 108 -15z m-124 -58 c65 -27 49 -85 -29 -102 -81 -17 -243 -160 -304 -268 -42 -72 -40 -109 14 -260 52 -148 55 -179 20 -202 -23 -15 -27 -15 -50 0 -32 21 -53 63 -106 216 -35 101 -43 139 -43 196 0 63 3 77 34 127 58 97 102 135 240 211 47 26 92 54 100 61 17 15 58 33 78 34 7 1 28 -5 46 -13z m-764 -36 c10 -5 94 -17 187 -25 238 -21 273 -25 273 -35 0 -5 -15 -17 -32 -26 -18 -9 -58 -42 -90 -74 -118 -120 -136 -216 -73 -386 19 -51 35 -97 35 -101 0 -5 -60 -14 -132 -20 -73 -7 -162 -19 -198 -27 -36 -9 -92 -22 -125 -30 -33 -8 -84 -23 -113 -34 -49 -18 -56 -18 -100 -4 -55 17 -87 44 -149 126 -74 97 -89 149 -53 181 16 14 17 20 8 27 -16 10 20 41 117 102 56 34 78 42 103 38 45 -6 120 16 137 42 8 11 15 37 15 57 0 32 4 37 28 42 57 11 132 89 132 136 0 24 4 25 30 11z m-330 -74 c68 -36 118 -117 92 -149 -18 -21 -80 -50 -96 -44 -12 5 -13 11 -3 36 10 26 8 32 -14 50 -35 29 -149 48 -188 31 -17 -7 -31 -16 -31 -21 0 -5 -12 -14 -26 -20 -30 -11 -74 10 -74 36 0 20 40 63 80 85 48 26 207 23 260 -4z m-67 -113 c15 -7 27 -19 27 -27 0 -7 -24 -29 -52 -49 -68 -46 -167 -144 -179 -174 -23 -61 -1 -160 47 -208 34 -34 65 -88 62 -108 -2 -12 -15 -28 -30 -37 -26 -14 -31 -13 -73 10 -104 57 -202 188 -212 283 -5 51 -3 58 35 114 45 67 94 110 202 177 80 49 107 52 173 19z m1017 -533 c20 -28 20 -31 5 -64 -17 -35 -165 -186 -183 -186 -19 0 -69 49 -101 99 -31 48 -50 144 -31 156 4 3 23 -18 40 -45 18 -28 44 -56 59 -63 30 -15 78 -14 92 0 15 15 31 92 24 114 -5 14 0 22 17 28 29 11 50 0 78 -39z m-344 -37 c0 -82 39 -158 110 -214 83 -67 82 -68 -89 -95 -82 -13 -111 -14 -119 -6 -19 19 -26 14 -38 -22 -6 -19 -23 -53 -39 -77 -15 -24 -60 -98 -98 -164 -39 -66 -95 -163 -126 -215 -60 -103 -78 -157 -84 -260 -6 -103 -14 -133 -44 -167 -15 -18 -38 -55 -51 -83 -12 -27 -25 -50 -28 -50 -4 0 -16 28 -29 63 -35 94 -40 228 -12 337 26 102 149 352 224 455 28 39 68 95 88 126 21 31 52 71 70 89 30 29 37 32 76 26 49 -6 50 5 3 24 -43 18 -83 -1 -117 -56 -29 -46 -57 -60 -123 -63 -110 -5 -235 140 -194 225 31 65 56 83 136 104 129 34 365 75 449 78 l36 2 -1 -57z m434 -167 c0 -8 -32 -41 -71 -73 -59 -48 -67 -59 -49 -61 14 -2 49 19 108 67 83 68 89 71 127 66 46 -7 153 -43 174 -59 42 -33 131 -215 131 -269 0 -17 -9 -32 -24 -42 -23 -15 -27 -15 -64 4 -45 23 -140 124 -148 158 -4 14 2 33 15 51 43 61 4 37 -111 -68 -65 -61 -127 -110 -137 -110 -21 0 -41 -19 -41 -39 0 -11 4 -11 19 3 11 10 27 16 37 14 21 -4 139 -146 199 -238 82 -128 103 -217 70 -295 -33 -80 -168 -260 -246 -328 -23 -21 -76 -70 -117 -109 -59 -56 -72 -72 -60 -79 13 -7 14 -18 7 -55 -11 -59 -24 -74 -61 -74 -63 0 -151 60 -198 135 -26 42 -42 137 -29 173 14 41 66 64 113 51 32 -9 36 -14 36 -42 0 -18 -4 -48 -10 -67 -8 -29 -6 -39 13 -67 23 -34 74 -60 89 -45 4 4 -12 22 -37 40 -27 19 -45 39 -45 51 0 20 76 93 132 125 33 20 33 20 19 0 -8 -10 5 0 28 24 23 23 46 42 51 42 6 0 10 3 10 8 0 4 32 41 71 82 39 41 77 91 85 110 25 57 13 136 -33 227 -45 87 -155 267 -138 223 4 -9 0 -7 -9 4 -11 14 -13 24 -5 38 16 29 4 33 -17 5 l-19 -24 -40 45 c-22 24 -45 56 -52 71 -17 36 -16 155 1 194 26 61 138 145 194 146 21 1 32 -4 32 -13z m-1090 -72 c24 -22 40 -45 40 -59 0 -35 -27 -102 -60 -151 -16 -24 -44 -65 -61 -90 -45 -65 -30 -64 27 3 81 95 123 162 124 201 0 19 3 21 19 13 27 -15 41 -62 31 -106 -13 -56 -52 -107 -132 -172 -104 -85 -112 -88 -156 -67 -20 10 -45 17 -55 16 -25 -1 -17 56 15 99 31 41 73 132 83 177 6 30 5 32 -23 32 -23 0 -31 -5 -36 -23 -4 -16 -20 -30 -48 -42 -24 -11 -54 -27 -68 -36 -14 -10 -42 -20 -62 -24 -34 -6 -38 -5 -44 18 -8 36 11 89 44 119 47 44 116 85 162 99 25 7 49 16 55 21 5 4 31 8 57 8 41 0 54 -5 88 -36z m812 -126 c-5 -51 15 -142 40 -185 10 -17 50 -60 88 -94 69 -62 166 -191 194 -260 41 -99 23 -158 -82 -270 -42 -45 -108 -106 -145 -136 l-68 -54 -28 23 c-39 34 -130 53 -176 38 -20 -7 -68 -18 -108 -25 -40 -7 -107 -21 -150 -30 -90 -19 -96 -17 -131 54 -30 59 -38 107 -37 206 1 96 24 179 80 295 38 79 137 244 171 284 8 10 15 23 16 30 5 32 68 127 87 131 43 10 193 33 222 34 30 1 30 0 27 -41z m-561 -26 c7 -7 -10 -39 -159 -299 -45 -78 -82 -147 -82 -153 0 -6 -4 -18 -10 -28 -5 -9 -17 -46 -27 -82 -20 -73 -23 -265 -5 -303 6 -12 20 -47 31 -78 11 -31 29 -72 40 -90 28 -46 27 -56 -11 -75 -18 -9 -35 -20 -38 -23 -3 -3 -15 -14 -26 -24 -21 -17 -24 -16 -125 51 -107 71 -174 135 -204 192 -13 25 -16 46 -11 84 6 47 39 148 57 171 4 6 28 51 55 100 71 135 132 211 241 300 104 86 152 146 180 227 18 49 18 49 53 43 19 -4 38 -10 41 -13z m1033 -56 c32 -42 33 -56 4 -48 -32 10 -68 35 -68 47 0 12 20 35 31 35 4 0 18 -15 33 -34z m-1484 9 c0 -19 -24 -30 -41 -19 -9 5 -7 11 6 21 24 17 35 17 35 -2z m25 -247 c14 -6 25 -15 25 -20 0 -8 -27 -52 -134 -220 -21 -33 -47 -81 -58 -107 -11 -25 -28 -64 -39 -86 -10 -23 -22 -62 -25 -88 -6 -40 -2 -56 26 -113 18 -38 40 -69 51 -71 28 -8 52 -50 40 -72 -7 -12 -7 -21 0 -28 6 -6 5 -14 -6 -23 -8 -7 -15 -19 -15 -26 0 -8 -3 -14 -6 -14 -18 0 -115 64 -155 102 -143 138 -123 295 70 563 84 117 124 169 134 173 4 2 7 10 7 17 0 25 44 32 85 13z m756 -725 c2 -109 36 -180 126 -263 l66 -60 -34 -1 c-111 -4 -148 -8 -179 -16 -19 -6 -44 -6 -55 -2 -58 23 -152 -16 -171 -70 -8 -25 -25 -39 -80 -68 -133 -68 -235 -53 -305 45 -30 41 -34 56 -38 120 l-3 73 52 51 c105 101 414 220 588 227 30 1 32 -1 33 -36z m-98 -393 c-3 -11 4 -32 16 -49 12 -16 21 -32 21 -36 0 -3 -16 -13 -36 -21 -28 -12 -34 -18 -25 -27 9 -9 21 -7 50 10 31 18 40 20 44 9 7 -18 0 -24 -41 -42 -37 -15 -72 -3 -72 26 0 8 -11 25 -24 38 -37 34 -42 72 -14 93 41 32 89 31 81 -1z m152 21 c-51 -20 -85 -29 -85 -21 0 16 34 29 70 29 28 0 31 -2 15 -8z m28 -132 c-42 -54 -58 -65 -128 -94 -58 -25 -96 -34 -137 -35 -32 0 -58 4 -58 9 0 4 36 15 79 24 95 19 182 61 236 115 59 58 62 50 8 -19z m57 -26 c-15 -85 -62 -131 -170 -169 -71 -25 -168 -26 -184 -2 -16 27 7 42 58 39 30 -1 71 8 128 30 88 34 117 54 149 106 12 18 22 33 23 33 2 0 0 -17 -4 -37z m-292 -45 c-18 -11 -58 -10 -58 1 0 5 7 17 16 26 15 15 18 15 35 -1 15 -14 17 -19 7 -26z m344 -62 c-26 -54 -38 -68 -88 -99 -105 -63 -236 -79 -281 -35 -12 13 -6 16 54 21 133 11 268 82 291 152 7 22 20 46 30 53 30 23 27 -22 -6 -92z m213 -40 c70 -15 143 -50 240 -116 143 -98 269 -260 374 -480 76 -160 85 -204 85 -420 1 -221 -14 -287 -89 -389 -25 -34 -45 -69 -45 -79 0 -10 -13 -31 -30 -47 -23 -22 -27 -32 -19 -47 15 -28 18 -108 4 -108 -6 0 -24 14 -41 31 -16 17 -38 36 -49 42 -12 7 -96 12 -215 14 -306 4 -393 32 -556 175 -89 79 -133 131 -186 222 -48 82 -98 178 -98 189 0 4 -9 26 -19 50 -21 46 -32 91 -57 216 -17 89 -13 265 6 302 6 10 10 33 10 51 1 18 16 69 34 113 32 76 36 80 63 77 15 -2 78 -4 138 -5 90 -1 122 3 176 21 91 31 144 78 165 147 20 61 19 61 109 41z"/>
 <path d="M1155 5669 c-87 -51 -105 -67 -105 -93 1 -19 2 -19 11 -3 5 9 45 40 87 69 91 60 86 57 81 62 -3 3 -36 -13 -74 -35z"/>
 <path d="M1215 5645 c-137 -86 -166 -155 -64 -155 16 0 29 5 29 10 0 6 -9 10 -19 10 -11 0 -22 4 -25 8 -9 14 45 72 105 113 33 22 57 44 54 50 -4 5 -7 9 -8 8 -1 -1 -33 -21 -72 -44z"/>
 <path d="M2670 2013 c0 -5 9 -23 21 -42 47 -77 42 -158 -14 -210 -32 -29 -54 -25 -134 29 -33 22 -66 40 -72 40 -6 0 -11 5 -11 10 0 13 -37 13 -45 1 -3 -5 -1 -12 4 -16 6 -3 13 -26 17 -51 17 -118 -62 -200 -135 -138 -38 32 -88 126 -97 183 -8 50 -24 54 -24 5 0 -81 107 -234 163 -234 75 0 118 56 118 155 0 36 5 65 10 65 5 0 32 -16 60 -35 55 -38 111 -57 137 -48 60 22 94 68 94 131 0 41 -58 162 -77 162 -8 0 -15 -3 -15 -7z"/>
 <path d="M2485 5966 c-100 -31 -152 -53 -175 -76 -25 -25 -26 -46 -1 -59 16 -9 17 -7 14 14 -7 31 44 64 154 100 46 14 85 31 88 36 8 12 4 11 -80 -15z"/>
 <path d="M3795 2767 c-105 -54 -215 -120 -235 -143 -35 -36 -17 -29 57 21 36 25 70 45 77 45 6 0 23 6 38 14 14 8 42 19 61 25 20 7 41 19 48 27 21 26 -4 32 -46 11z"/>
 <path d="M4185 2291 c-6 -5 -46 -18 -90 -30 -185 -47 -329 -81 -346 -81 -11 0 -19 -4 -19 -10 0 -16 80 -12 191 10 219 43 334 80 326 104 -5 14 -49 20 -62 7z"/>
 <path d="M1080 2159 c0 -22 1 -22 123 -16 226 12 241 31 27 35 -149 3 -150 3 -150 -19z"/>
 <path d="M1525 1789 c-22 -4 -60 -8 -85 -9 -82 -1 -161 -35 -144 -62 3 -4 17 -3 32 3 15 6 70 20 122 31 141 30 140 30 146 39 6 10 -15 10 -71 -2z"/>
 <path d="M3815 1651 c-18 -7 -17 -9 10 -14 17 -3 62 -9 100 -12 39 -4 99 -11 134 -16 68 -10 101 -5 101 15 0 10 -33 15 -122 20 -68 4 -141 9 -163 11 -22 2 -49 1 -60 -4z"/>
 <path d="M1560 1415 c-52 -17 -37 -10 -250 -113 -91 -45 -195 -94 -233 -111 -61 -27 -89 -53 -74 -68 15 -14 166 54 357 161 36 19 109 57 163 83 53 25 97 50 97 55 0 10 -5 10 -60 -7z"/>
 <path d="M3830 1262 c0 -17 37 -40 109 -67 40 -15 143 -63 228 -106 114 -58 162 -77 179 -73 47 12 27 43 -41 64 -22 7 -44 16 -50 20 -5 5 -41 20 -80 34 -38 15 -79 31 -90 36 -11 5 -49 19 -85 31 -36 12 -87 32 -114 45 -56 27 -56 27 -56 16z"/>
 <path d="M1809 1087 c-25 -23 -100 -85 -167 -137 -70 -55 -121 -102 -122 -112 0 -37 24 -20 178 120 110 100 180 172 166 172 -5 0 -29 -19 -55 -43z"/>
 <path d="M2228 840 c-50 -46 -65 -65 -61 -80 3 -11 9 -20 13 -20 9 0 58 54 129 143 11 14 11 17 0 17 -8 0 -44 -27 -81 -60z"/>
 </g>
<g id="layer4" fill="#6a675a" stroke="none">
 <path d="M1662 4530 c0 -19 2 -27 5 -17 2 9 2 25 0 35 -3 9 -5 1 -5 -18z"/>
 <path d="M1022 3560 c0 -19 2 -27 5 -17 2 9 2 25 0 35 -3 9 -5 1 -5 -18z"/>
 <path d="M4156 1636 c4 -11 2 -21 -7 -27 -10 -6 -11 -9 -1 -9 18 0 27 29 13 43 -9 9 -11 8 -5 -7z"/>
 <path d="M1754 1008 l-29 -33 33 29 c17 17 32 31 32 33 0 8 -8 1 -36 -29z"/>
 <path d="M3110 1037 c0 -2 15 -16 33 -33 l32 -29 -29 33 c-28 30 -36 37 -36 29z"/>
 </g>

</svg>